<svg width="150" height="134" viewBox="0 0 150 134" fill="none" xmlns="http://www.w3.org/2000/svg">
<g clip-path="url(#clip0_818_103)">
<path d="M12.5317 133.348L0.464844 100.824H9.28291L17.1728 122.104L25.0626 100.824H33.8807L21.8139 133.348H12.5317Z" fill="#008080"/>
<path d="M53.8488 133.351H45.4948V123.129L34.8203 100.826H44.1025L49.6718 112.581L55.2411 100.826H64.5233L53.8488 123.129V133.351ZM65.9229 100.826H90.9847V108.26H82.6308V133.351H74.2768V108.26H65.9229V100.826ZM93.7726 120.527V100.826H102.127V120.527C102.127 122.355 102.591 123.67 103.519 124.476C104.447 125.25 105.685 125.638 107.232 125.638C108.779 125.638 110.016 125.25 110.945 124.476C111.873 123.67 112.337 122.355 112.337 120.527V100.826H120.691V120.527C120.691 122.695 120.366 124.615 119.716 126.288C119.067 127.961 118.154 129.37 116.978 130.516C115.803 131.662 114.379 132.53 112.708 133.118C111.069 133.706 109.243 134.001 107.232 134.001C105.221 134.001 103.38 133.706 101.709 133.118C100.07 132.53 98.6616 131.662 97.4855 130.516C96.3104 129.37 95.397 127.961 94.7473 126.288C94.0975 124.615 93.7726 122.695 93.7726 120.527ZM136.478 107.099C135.489 107.099 134.622 107.408 133.879 108.028C133.137 108.616 132.765 109.406 132.765 110.398C132.765 111.327 133.152 112.008 133.925 112.442C134.7 112.876 135.674 113.248 136.849 113.557C138.025 113.836 139.294 114.131 140.655 114.44C142.017 114.719 143.286 115.183 144.461 115.834C145.637 116.484 146.611 117.398 147.385 118.575C148.159 119.721 148.545 121.301 148.545 123.314C148.545 124.925 148.236 126.397 147.617 127.728C147.029 129.029 146.178 130.145 145.064 131.074C143.982 132.003 142.667 132.731 141.119 133.258C139.603 133.753 137.902 134.001 136.014 134.001C133.477 134.001 131.157 133.536 129.052 132.607C126.949 131.647 125.247 130.346 123.947 128.704L129.052 124.058C129.981 124.987 131.048 125.715 132.255 126.242C133.461 126.769 134.714 127.032 136.014 127.032C137.283 127.032 138.288 126.69 139.031 126.009C139.805 125.328 140.191 124.43 140.191 123.314C140.191 122.385 139.805 121.704 139.031 121.27C138.257 120.836 137.283 120.48 136.107 120.201C134.932 119.892 133.663 119.597 132.301 119.319C130.94 119.009 129.671 118.529 128.495 117.878C127.32 117.228 126.346 116.329 125.572 115.183C124.798 114.006 124.411 112.411 124.411 110.398C124.411 108.849 124.69 107.455 125.247 106.216C125.804 104.946 126.593 103.877 127.614 103.01C128.635 102.111 129.857 101.414 131.28 100.919C132.704 100.424 134.282 100.176 136.014 100.176C138.552 100.176 140.701 100.563 142.465 101.337C144.26 102.111 145.807 103.319 147.106 104.961L141.583 109.654C140.872 108.725 140.068 108.075 139.17 107.703C138.273 107.3 137.376 107.099 136.478 107.099Z" fill="#24044D"/>
<path fill-rule="evenodd" clip-rule="evenodd" d="M21.3477 0L45.0898 2.58484e-05L75.7866 72.4929H51.587L21.3477 0ZM53.0514 76.0754L57.6001 88.6143H92.3849L96.8489 76.0754H53.0514Z" fill="#008080"/>
<path fill-rule="evenodd" clip-rule="evenodd" d="M92.1251 0.0809477L96.9824 11.6259L84.2793 41.5872L64.7891 0.0809477H92.1251ZM105.8 0L85.755 47.2751L75.5388 72.4931H98.3497L128.65 0H105.8Z" fill="#24044D"/>
</g>
<defs>
<clipPath id="clip0_818_103">
<rect width="150" height="134" fill="white"/>
</clipPath>
</defs>
</svg>
